<svg id="e89ce7db-4e3c-4a4d-84b2-0da29a9e901f" data-name="e23b458a-38af-4be4-80bb-1e82259a0170" xmlns="http://www.w3.org/2000/svg" xmlns:xlink="http://www.w3.org/1999/xlink" viewBox="0 0 480.9 726.9"><defs><style>.ce89198e-b550-4e3c-97df-291179075e06{fill:url(#cd42eb8d-b1f8-4a32-adce-3a077af6b54e);}.\32 2807b5c-7dfb-4952-8ab4-b8bcbd9fe7b8{fill:url(#13d42100-2d6e-4559-baa1-ba2da7ed4364);}.\32 deaf119-eafa-4245-9778-05e4ae26225f{fill:url(#e7ca16c5-7f89-4c71-a05b-76afe71a7fdf);}.\30 617537d-7ddf-415c-b4c9-214aae38624a{fill:url(#8421093d-690d-4ab8-8e66-ba07280f8bf7);}</style><linearGradient id="cd42eb8d-b1f8-4a32-adce-3a077af6b54e" x1="713.74" y1="533.82" x2="1065.03" y2="533.82" gradientTransform="translate(-669.2)" gradientUnits="userSpaceOnUse"><stop offset="0" stop-color="#1f6db4"/><stop offset="0.29" stop-color="#206ab2"/><stop offset="0.46" stop-color="#2262ac"/><stop offset="0.61" stop-color="#2653a2"/><stop offset="0.74" stop-color="#2b3f94"/><stop offset="0.84" stop-color="#312984"/><stop offset="1" stop-color="#312782"/><stop offset="1" stop-color="#1d70b7"/></linearGradient><linearGradient id="13d42100-2d6e-4559-baa1-ba2da7ed4364" x1="1094.25" y1="485.85" x2="1094.25" y2="202.24" gradientTransform="translate(-669.2)" gradientUnits="userSpaceOnUse"><stop offset="0" stop-color="#e5332a"/><stop offset="0.15" stop-color="#e8492c"/><stop offset="0.46" stop-color="#f18030"/><stop offset="0.71" stop-color="#f8b133"/><stop offset="0.79" stop-color="#f7ad2d"/><stop offset="0.88" stop-color="#f5a31d"/><stop offset="1" stop-color="#f29201"/><stop offset="1" stop-color="#f29100"/></linearGradient><linearGradient id="e7ca16c5-7f89-4c71-a05b-76afe71a7fdf" x1="1024.18" y1="372.09" x2="1024.18" y2="93.05" gradientTransform="translate(-669.2)" gradientUnits="userSpaceOnUse"><stop offset="0" stop-color="#e5332a"/><stop offset="0.16" stop-color="#ec642e"/><stop offset="0.36" stop-color="#f59c31"/><stop offset="0.46" stop-color="#f8b133"/><stop offset="0.6" stop-color="#f7ad2d"/><stop offset="0.78" stop-color="#f5a31d"/><stop offset="0.99" stop-color="#f29201"/><stop offset="1" stop-color="#f29100"/></linearGradient><linearGradient id="8421093d-690d-4ab8-8e66-ba07280f8bf7" x1="-7.54" y1="766.63" x2="-7.54" y2="39.77" gradientTransform="matrix(-1, 0, 0, 1, 357.38, 0)" gradientUnits="userSpaceOnUse"><stop offset="0" stop-color="#e5332a"/><stop offset="0.1" stop-color="#e63b2b"/><stop offset="0.25" stop-color="#e9502c"/><stop offset="0.44" stop-color="#ee722e"/><stop offset="0.65" stop-color="#f6a132"/><stop offset="0.71" stop-color="#f8b133"/><stop offset="0.79" stop-color="#f7ad2d"/><stop offset="0.88" stop-color="#f5a31d"/><stop offset="1" stop-color="#f29201"/><stop offset="1" stop-color="#f29100"/></linearGradient></defs><title>ignix</title><path class="ce89198e-b550-4e3c-97df-291179075e06" d="M236.7,764.3c223.4-38.2,150.2-238.7,138.1-255.7,13.5,57-21.8,115.8-96.4,115.8-69.8,0-134.5-46.9-133.6-131s36-150.8,57.5-190c0,0-157.7,88.2-157.7,236S162.3,753,236.7,764.3Z" transform="translate(-44.6 -39.8)"/><path class="22807b5c-7dfb-4952-8ab4-b8bcbd9fe7b8" d="M433.1,202.2s-82.3,59-59.5,159.5c20.6,91.2,94.3,124.1,94.3,124.1s42.4-75.7-27.6-180.5C406.6,255.1,433.1,202.2,433.1,202.2Z" transform="translate(-44.6 -39.8)"/><path class="2deaf119-eafa-4245-9778-05e4ae26225f" d="M359.7,93s-80.5,48.5-57.8,149c20.6,91.2,105.2,130,105.2,130s25.9-36.4-40.8-165.4C338.6,153,359.7,93,359.7,93Z" transform="translate(-44.6 -39.8)"/><path class="0617537d-7ddf-415c-b4c9-214aae38624a" d="M374.8,508.6h0c-17.7-56.5-90.2-88-132.8-163.4-94.9-168,19.9-305.5,19.9-305.5,6.6,181.4,36.6,208.9,130.1,273.5C441.9,347.8,525.4,424.7,525.4,535c0,175.4-166.3,231.6-258.1,231.6a204.9,204.9,0,0,1-30.6-2.4C460.1,726.1,386.9,525.6,374.8,508.6Z" transform="translate(-44.6 -39.8)"/></svg>